<svg width="12" height="12" viewBox="0 0 12 12" fill="none" xmlns="http://www.w3.org/2000/svg">
<g clip-path="url(#clip0)">
<rect width="12" height="12" fill="none"/>
<path d="M0.376 2.164L1.938 0.601999L6.91 5.574C7.45267 6.102 7.95133 6.61533 8.406 7.114C8.86067 7.61267 9.27133 8.08933 9.638 8.544C9.506 7.91333 9.396 7.23867 9.308 6.52C9.23467 5.78667 9.198 5.03133 9.198 4.254C9.198 3.16867 9.27133 2.14933 9.418 1.196L11.618 1.35C11.486 2.142 11.3907 2.94133 11.332 3.748C11.2733 4.54 11.244 5.33933 11.244 6.146C11.244 7.09933 11.2807 8.05267 11.354 9.006C11.442 9.94467 11.552 10.8833 11.684 11.822L11.574 11.91C10.65 11.778 9.71133 11.6753 8.758 11.602C7.81933 11.514 6.87333 11.47 5.92 11.47C5.11333 11.47 4.30667 11.4993 3.5 11.558C2.708 11.6167 1.916 11.712 1.124 11.844L0.948 9.666C1.90133 9.50467 2.928 9.424 4.028 9.424C4.80533 9.424 5.55333 9.468 6.272 9.556C7.00533 9.62933 7.68 9.732 8.296 9.864C7.856 9.49733 7.37933 9.08667 6.866 8.632C6.36733 8.17733 5.86133 7.67867 5.348 7.136L0.376 2.164Z" fill="black"/>
</g>
<defs>
<clipPath id="clip0">
<rect width="12" height="12" fill="none"/>
</clipPath>
</defs>
</svg>
