<svg width="43" height="41" viewBox="0 0 43 41" fill="none" xmlns="http://www.w3.org/2000/svg">
<g clip-path="url(#clip0)">
<rect width="43" height="41" fill="none"/>
<path d="M21.216 1.488L22.24 0.848C24.2027 3.536 26.208 6.01066 28.256 8.272C30.304 10.4907 32.48 12.624 34.784 14.672C37.1307 16.6773 39.7333 18.704 42.592 20.752V20.88C39.7333 22.9707 37.1307 25.0187 34.784 27.024C32.48 29.0293 30.304 31.1627 28.256 33.424C26.2507 35.6427 24.2453 38.096 22.24 40.784L21.216 40.144C24.3307 36.048 27.5947 32.3573 31.008 29.072C34.4213 25.7867 37.6427 23.1627 40.672 21.2C39.52 21.2427 38.3253 21.2853 37.088 21.328C35.8507 21.328 34.8267 21.328 34.016 21.328H-0.224V20.304H34.016C34.8267 20.304 35.8507 20.3253 37.088 20.368C38.3253 20.368 39.52 20.3893 40.672 20.432C37.6427 18.4693 34.4213 15.8453 31.008 12.56C27.5947 9.27467 24.3307 5.584 21.216 1.488Z" fill="black"/>
</g>
<defs>
<clipPath id="clip0">
<rect width="43" height="41" fill="none"/>
</clipPath>
</defs>
</svg>
